<?xml version="1.0" encoding="utf-8"?>
<!-- Generator: Adobe Illustrator 17.0.0, SVG Export Plug-In . SVG Version: 6.00 Build 0)  -->
<!DOCTYPE svg PUBLIC "-//W3C//DTD SVG 1.1//EN" "http://www.w3.org/Graphics/SVG/1.1/DTD/svg11.dtd">
<svg version="1.1" id="Ebene_1" xmlns="http://www.w3.org/2000/svg" xmlns:xlink="http://www.w3.org/1999/xlink" x="0px" y="0px"
	 width="281.782px" height="147.932px" viewBox="0 0.464 281.782 147.932" enable-background="new 0 0.464 281.782 147.932"
	 xml:space="preserve">
<g>
	<path fill="#FF6272" d="M189.184,136.324h4.025v-4.025h-4.025V136.324z M185.159,132.299h4.024v-4.024h-4.024V132.299z
		 M181.134,128.275h4.025v-4.025h-4.025V128.275z M189.184,108.151v4.025h-4.024v4.025h-4.025v4.024h-4.025v-12.074h-4.024v28.173
		h4.024V124.25h4.025v-4.026h4.025V116.2h4.024v-4.025h4.025v-4.025H189.184z M161.011,100.102h44.272v44.271h-44.272V100.102z
		 M209.307,96.077h4.025v-4.024h4.025v44.271h-4.025v4.025h-4.025V96.077z M165.035,92.053h4.025v-4.025h44.272v4.025h-4.025v4.024
		h-44.272V92.053z M169.06,84.003v4.025h-4.025v4.025h-4.024v4.024h-4.025v52.32h52.321v-4.024h4.025v-4.024h4.025v-4.025h4.024
		v-52.32H169.06z"/>
	<path fill="#FF6272" d="M249.585,112.183v8.049h-12.074v-4.025h-4.025v4.025h4.025v4.025h12.074v-4.025h4.025v-8.049H249.585z
		 M237.511,112.183h12.074v-4.024h-12.074V112.183z M249.585,104.134h4.025v-4.024h-4.025V104.134z M237.511,96.085v4.025h-4.025
		v8.049h4.025v-8.049h12.074v-4.025H237.511z M221.412,88.036h44.271v44.27h-44.271V88.036z M269.708,84.011h4.025v-4.025h4.025
		v44.271h-4.025v4.024h-4.025V84.011z M225.438,79.986h4.025v-4.025h44.27v4.025h-4.025v4.025h-44.27V79.986z M229.462,71.937v4.024
		h-4.025v4.025h-4.025v4.025h-4.024v52.319h52.319v-4.024h4.025v-4.025h4.025v-4.024h4.024v-52.32H229.462z"/>
	<path fill="#FF6272" d="M28.221,36.657v28.173h20.124v-4.025H32.246V36.657H28.221z M16.148,28.608h44.27v44.27h-44.27V28.608z
		 M64.442,24.583h4.025v-4.025h4.025v44.271h-4.025v4.024h-4.025V24.583z M20.172,20.558h4.025v-4.024h44.27v4.024h-4.025v4.025
		h-44.27V20.558z M24.197,12.509v4.025h-4.025v4.024h-4.024v4.025h-4.025v52.32h52.319v-4.025h4.025v-4.025h4.025v-4.024h4.025
		v-52.32H24.197z"/>
	<path fill="#FF6272" d="M153.057,47.745v12.074h-4.024v8.049h-4.025v-8.049h-4.025V47.745h-4.024v12.074h4.024v8.049h4.025v8.049
		h4.025v-8.049h4.024v-8.049h4.025V47.745H153.057z M124.885,39.696h44.27v44.27h-44.27V39.696z M173.18,35.671h4.024v-4.025h4.025
		v44.271h-4.025v4.024h-4.024V35.671z M128.91,31.647h4.025v-4.024h44.27v4.024h-4.024v4.025H128.91V31.647z M132.934,23.598v4.025
		h-4.025v4.024h-4.024v4.025h-4.025v52.32h52.32v-4.025h4.024v-4.025h4.025v-4.024h4.025v-52.32H132.934z"/>
	<path fill="#FF6272" d="M237.578,63.878h4.025v-44.27h-4.025v4.025h-4.025v44.271h4.025V63.878z M197.331,63.878V35.706h20.124
		v4.024h-16.099v8.049h16.099v4.024h-16.099v8.05h16.099v4.024H197.331z M233.554,19.608h4.025v-4.025h-44.272v4.025h-4.025v4.025
		h44.272V19.608z M229.529,27.657h-44.272v44.271h44.272V27.657z M181.233,75.953v-52.32h4.025v-4.025h4.024v-4.025h4.025v-4.024
		h52.322v52.32h-4.025v4.025h-4.025v4.025h-4.025v4.024H181.233z"/>
	<path fill="#FF6272" d="M32.197,96.971v12.074H20.123V96.971h-4.024v28.171h4.024v-12.074l12.074-0.063v12.136h4.025V96.971H32.197
		z M4.025,88.922h44.27v44.27H4.025V88.922z M52.32,84.897h4.024v-4.025h4.025v44.27h-4.025v4.025H52.32V84.897z M8.049,80.873
		h4.025v-4.025h44.27v4.025H52.32v4.025H8.049V80.873z M12.074,72.824v4.024H8.049v4.025H4.025v4.025H0v52.319h52.32v-4.024h4.024
		v-4.025h4.025v-4.025h4.025V72.824H12.074z"/>
	<g>
		<rect x="124.815" y="8.514" fill="#FF6272" width="4.025" height="4.025"/>
		<polygon fill="#FF6272" points="128.84,8.514 132.864,8.514 132.864,27.759 132.934,27.622 136.889,27.622 136.889,0.464 
			84.569,0.464 84.569,4.488 128.84,4.488 		"/>
		<rect x="80.544" y="4.488" fill="#FF6272" width="4.024" height="4.025"/>
		<polygon fill="#FF6272" points="108.717,48.76 100.668,48.76 100.668,28.637 108.717,28.637 108.717,24.612 88.593,24.612 
			88.593,28.699 96.643,28.637 96.643,48.76 88.593,48.76 88.593,52.785 108.717,52.785 		"/>
		<path fill="#FF6272" d="M124.823,56.809h-0.008v-44.27h-44.27V8.514H76.52v4.025h-4.025v52.319h52.32v-4.024h0.008V56.809z
			 M120.79,60.834H76.52v-44.27h44.27V60.834z"/>
	</g>
	<g>
		<rect x="116.852" y="88.027" fill="#FF6272" width="4.025" height="4.025"/>
		<polygon fill="#FF6272" points="165.147,92.052 169.06,92.052 169.06,87.991 173.197,87.991 173.197,84.003 120.877,84.003 
			120.877,88.027 165.147,88.027 		"/>
		<rect x="128.926" y="108.15" fill="#FF6272" width="12.074" height="4.025"/>
		<rect x="161.123" y="92.052" fill="#FF6272" width="4.024" height="4.025"/>
		<rect x="141" y="128.274" fill="#FF6272" width="4.025" height="4.025"/>
		<rect x="128.926" y="132.298" fill="#FF6272" width="12.074" height="4.025"/>
		<path fill="#FF6272" d="M161.011,145.541v-12.942l0.112-0.565V96.077h-44.271v-4.025h-4.024v4.025h-4.025v52.32h52.32v-2.849
			L161.011,145.541z M157.098,144.372h-44.27v-44.27h44.27V144.372z"/>
		<rect x="124.902" y="112.175" fill="#FF6272" width="4.025" height="20.123"/>
		<rect x="141" y="112.175" fill="#FF6272" width="4.025" height="4.024"/>
	</g>
	<g>
		<polygon fill="#FF6272" points="116.774,68.839 120.798,68.839 120.798,92.266 120.877,92.052 120.877,88.027 124.823,88.027 
			124.823,60.79 72.503,60.79 72.503,64.814 116.774,64.814 		"/>
		<rect x="112.749" y="68.839" fill="#FF6272" width="4.025" height="4.025"/>
		<rect x="68.478" y="64.814" fill="#FF6272" width="4.024" height="4.025"/>
		<path fill="#FF6272" d="M112.749,117.134v-2.947V72.864h-44.27v-4.025h-4.025v4.025h-4.025v52.32h52.32v-4.025V117.134z
			 M108.724,121.159h-44.27V76.888h44.27V121.159z"/>
		<polygon fill="#FF6272" points="80.552,101.036 92.626,101.036 92.626,113.11 96.65,113.11 96.65,88.962 92.626,88.962 
			92.626,97.011 80.553,97.011 80.553,88.962 92.626,88.962 92.626,84.937 80.552,84.937 80.552,88.962 76.527,88.962 
			76.527,113.11 80.552,113.11 		"/>
	</g>
</g>
</svg>
