<?xml version="1.0" encoding="utf-8"?>
<!-- Generator: Adobe Illustrator 17.0.0, SVG Export Plug-In . SVG Version: 6.00 Build 0)  -->
<!DOCTYPE svg PUBLIC "-//W3C//DTD SVG 1.1//EN" "http://www.w3.org/Graphics/SVG/1.1/DTD/svg11.dtd">
<svg version="1.1" id="Ebene_1" xmlns="http://www.w3.org/2000/svg" xmlns:xlink="http://www.w3.org/1999/xlink" x="0px" y="0px"
	 width="199.772px" height="145.558px" viewBox="0 0 199.772 145.558" enable-background="new 0 0 199.772 145.558"
	 xml:space="preserve">
<g>
	<defs>
		<path id="SVGID_1_" d="M-196.473-3800.316h4.036v-4.042h-4.036V-3800.316z M-200.509-3804.358h4.036v-4.041h-4.036V-3804.358z
			 M-204.546-3808.399h4.037v-4.042h-4.037V-3808.399z M-196.473-3828.608v4.042h-4.036v4.042h-4.037v4.041h-4.036v-12.125h-4.036
			v28.292h4.036v-12.125h4.036v-4.043h4.037v-4.041h4.036v-4.042h4.036v-4.042H-196.473z M-224.727-3792.233h44.399v-44.458h-44.399
			V-3792.233z M-176.292-3840.733h4.036v-4.041h4.036v44.458h-4.036v4.042h-4.036V-3840.733z M-220.691-3844.774h4.036v-4.041
			h44.399v4.041h-4.036v4.041h-44.399V-3844.774z M-216.655-3852.857v4.042h-4.036v4.041h-4.036v4.041h-4.036v52.541h52.471v-4.042
			h4.036v-4.041h4.036v-4.042h4.036v-52.541H-216.655z"/>
	</defs>
	<clipPath id="SVGID_2_">
		<use xlink:href="#SVGID_1_"  overflow="visible"/>
	</clipPath>
	<g clip-path="url(#SVGID_2_)">
		<defs>
			<rect id="SVGID_3_" x="-585.201" y="-4012.748" width="1808" height="8524"/>
		</defs>
		<clipPath id="SVGID_4_">
			<use xlink:href="#SVGID_3_"  overflow="visible"/>
		</clipPath>
		<rect x="-233.763" y="-3857.857" clip-path="url(#SVGID_4_)" fill="#FF6272" width="74.58" height="74.665"/>
	</g>
</g>
<g>
	<defs>
		<path id="SVGID_5_" d="M-152.043-3816.475h4.036v-4.042h-4.036V-3816.475z M-135.898-3824.559v8.084h-12.108v4.042h12.108v-4.042
			h4.036v-8.084H-135.898z M-148.006-3824.559h12.108v-4.041h-12.108V-3824.559z M-135.898-3832.642h4.036v-4.041h-4.036V-3832.642z
			 M-148.006-3840.724v4.041h-4.036v8.083h4.036v-8.083h12.108v-4.041H-148.006z M-164.152-3804.35h44.398v-44.457h-44.398V-3804.35
			z M-115.717-3852.849h4.036v-4.042h4.037v44.458h-4.037v4.042h-4.036V-3852.849z M-160.115-3856.891h4.036v-4.042h44.397v4.042
			h-4.036v4.042h-44.398V-3856.891z M-156.079-3864.974v4.041h-4.036v4.042h-4.037v4.042h-4.035v52.541h52.47v-4.041h4.036v-4.042
			h4.037v-4.042h4.036v-52.541H-156.079z"/>
	</defs>
	<clipPath id="SVGID_6_">
		<use xlink:href="#SVGID_5_"  overflow="visible"/>
	</clipPath>
	<g clip-path="url(#SVGID_6_)">
		<defs>
			<rect id="SVGID_7_" x="-585.201" y="-4012.748" width="1808" height="8524"/>
		</defs>
		<clipPath id="SVGID_8_">
			<use xlink:href="#SVGID_7_"  overflow="visible"/>
		</clipPath>
		<rect x="-173.187" y="-3869.974" clip-path="url(#SVGID_8_)" fill="#FF6272" width="74.579" height="74.665"/>
	</g>
</g>
<g>
	<defs>
		<path id="SVGID_9_" d="M-357.899-3900.403v28.292h20.181v-4.042h-16.145v-24.25H-357.899z M-370.007-3864.029h44.398v-44.457
			h-44.398V-3864.029z M-321.573-3912.527h4.036v-4.042h4.037v44.458h-4.037v4.041h-4.036V-3912.527z M-365.971-3916.569h4.036
			v-4.041h44.398v4.041h-4.036v4.042h-44.398V-3916.569z M-361.935-3924.653v4.042h-4.036v4.041h-4.036v4.042h-4.036v52.54h52.47
			v-4.041h4.036v-4.042h4.037v-4.041h4.036v-52.541H-361.935z"/>
	</defs>
	<clipPath id="SVGID_10_">
		<use xlink:href="#SVGID_9_"  overflow="visible"/>
	</clipPath>
	<g clip-path="url(#SVGID_10_)">
		<defs>
			<rect id="SVGID_11_" x="-585.201" y="-4012.748" width="1808" height="8524"/>
		</defs>
		<clipPath id="SVGID_12_">
			<use xlink:href="#SVGID_11_"  overflow="visible"/>
		</clipPath>
		<rect x="-379.043" y="-3929.653" clip-path="url(#SVGID_12_)" fill="#FF6272" width="74.58" height="74.665"/>
	</g>
</g>
<g>
	<defs>
		<path id="SVGID_13_" d="M-232.704-3889.268v12.125h-4.036v8.083h-4.036v-8.083h-4.036v-12.125h-4.036v12.125h4.036v8.083h4.036
			v8.083h4.036v-8.083h4.036v-8.083h4.036v-12.125H-232.704z M-260.956-3852.894h44.398v-44.457h-44.398V-3852.894z
			 M-212.522-3901.393h4.036v-4.042h4.036v44.458h-4.036v4.041h-4.036V-3901.393z M-256.921-3905.434h4.036v-4.041h44.398v4.041
			h-4.036v4.042h-44.398V-3905.434z M-252.884-3913.517v4.042h-4.036v4.041h-4.036v4.042h-4.036v52.541h52.47v-4.042h4.036v-4.042
			h4.036v-4.041h4.036v-52.541H-252.884z"/>
	</defs>
	<clipPath id="SVGID_14_">
		<use xlink:href="#SVGID_13_"  overflow="visible"/>
	</clipPath>
	<g clip-path="url(#SVGID_14_)">
		<defs>
			<rect id="SVGID_15_" x="-585.201" y="-4012.748" width="1808" height="8524"/>
		</defs>
		<clipPath id="SVGID_16_">
			<use xlink:href="#SVGID_15_"  overflow="visible"/>
		</clipPath>
		<rect x="-269.993" y="-3918.517" clip-path="url(#SVGID_16_)" fill="#FF6272" width="74.579" height="74.665"/>
	</g>
</g>
<g>
	<defs>
		<path id="SVGID_17_" d="M-147.939-3873.067h4.036v-44.457h-4.036v4.042h-4.036v44.458h4.036V-3873.067z M-188.302-3873.067
			v-28.291h20.181v4.041h-16.145v8.084h16.145v4.041h-16.145v8.083h16.145v4.041H-188.302z M-151.976-3917.524h4.036v-4.042h-44.399
			v4.042h-4.036v4.042h44.399V-3917.524z M-200.411-3864.983h44.4v-44.458h-44.4V-3864.983z M-204.447-3860.942v-52.541h4.036
			v-4.042h4.036v-4.042h4.036v-4.041h52.472v52.54h-4.036v4.042h-4.036v4.042h-4.036v4.041H-204.447z"/>
	</defs>
	<clipPath id="SVGID_18_">
		<use xlink:href="#SVGID_17_"  overflow="visible"/>
	</clipPath>
	<g clip-path="url(#SVGID_18_)">
		<defs>
			<rect id="SVGID_19_" x="-585.201" y="-4012.748" width="1808" height="8524"/>
		</defs>
		<clipPath id="SVGID_20_">
			<use xlink:href="#SVGID_19_"  overflow="visible"/>
		</clipPath>
		<rect x="-209.447" y="-3930.607" clip-path="url(#SVGID_20_)" fill="#FF6272" width="74.58" height="74.665"/>
	</g>
</g>
<g>
	<defs>
		<path id="SVGID_21_" d="M-353.912-3839.834v12.125h-12.109v-12.125h-4.036v28.29h4.036v-12.125l12.109-0.063v12.187h4.036v-28.29
			H-353.912z M-382.164-3803.461h44.398v-44.457h-44.398V-3803.461z M-333.731-3851.959h4.036V-3856h4.036v44.457h-4.036v4.042
			h-4.036V-3851.959z M-378.129-3856h4.036v-4.042h44.398v4.042h-4.036v4.041h-44.398V-3856z M-374.092-3864.083v4.041h-4.036v4.042
			h-4.036v4.041h-4.036v52.541h52.47v-4.041h4.036v-4.042h4.036v-4.042h4.036v-52.54H-374.092z"/>
	</defs>
	<clipPath id="SVGID_22_">
		<use xlink:href="#SVGID_21_"  overflow="visible"/>
	</clipPath>
	<g clip-path="url(#SVGID_22_)">
		<defs>
			<rect id="SVGID_23_" x="-585.201" y="-4012.748" width="1808" height="8524"/>
		</defs>
		<clipPath id="SVGID_24_">
			<use xlink:href="#SVGID_23_"  overflow="visible"/>
		</clipPath>
		<rect x="-391.201" y="-3869.083" clip-path="url(#SVGID_24_)" fill="#FF6272" width="74.579" height="74.665"/>
	</g>
</g>
<g>
	<defs>
		<rect id="SVGID_25_" x="-261.027" y="-3928.665" width="4.036" height="4.042"/>
	</defs>
	<clipPath id="SVGID_26_">
		<use xlink:href="#SVGID_25_"  overflow="visible"/>
	</clipPath>
	<g clip-path="url(#SVGID_26_)">
		<defs>
			<rect id="SVGID_27_" x="-585.201" y="-4012.748" width="1808" height="8524"/>
		</defs>
		<clipPath id="SVGID_28_">
			<use xlink:href="#SVGID_27_"  overflow="visible"/>
		</clipPath>
		<rect x="-266.027" y="-3933.665" clip-path="url(#SVGID_28_)" fill="#FF6272" width="14.036" height="14.042"/>
	</g>
</g>
<g>
	<defs>
		<polygon id="SVGID_29_" points="-301.389,-3936.748 -301.389,-3932.707 -256.991,-3932.707 -256.991,-3928.665 
			-252.955,-3928.665 -252.955,-3909.338 -252.885,-3909.476 -248.919,-3909.476 -248.919,-3936.748 		"/>
	</defs>
	<clipPath id="SVGID_30_">
		<use xlink:href="#SVGID_29_"  overflow="visible"/>
	</clipPath>
	<g clip-path="url(#SVGID_30_)">
		<defs>
			<rect id="SVGID_31_" x="-585.201" y="-4012.748" width="1808" height="8524"/>
		</defs>
		<clipPath id="SVGID_32_">
			<use xlink:href="#SVGID_31_"  overflow="visible"/>
		</clipPath>
		<rect x="-306.389" y="-3941.748" clip-path="url(#SVGID_32_)" fill="#FF6272" width="62.47" height="37.41"/>
	</g>
</g>
<g>
	<defs>
		<rect id="SVGID_33_" x="-305.425" y="-3932.707" width="4.036" height="4.042"/>
	</defs>
	<clipPath id="SVGID_34_">
		<use xlink:href="#SVGID_33_"  overflow="visible"/>
	</clipPath>
	<g clip-path="url(#SVGID_34_)">
		<defs>
			<rect id="SVGID_35_" x="-585.201" y="-4012.748" width="1808" height="8524"/>
		</defs>
		<clipPath id="SVGID_36_">
			<use xlink:href="#SVGID_35_"  overflow="visible"/>
		</clipPath>
		<rect x="-310.425" y="-3937.707" clip-path="url(#SVGID_36_)" fill="#FF6272" width="14.036" height="14.042"/>
	</g>
</g>
<g>
	<defs>
		<polygon id="SVGID_37_" points="-277.172,-3888.249 -285.244,-3888.249 -285.244,-3908.456 -277.172,-3908.456 
			-277.172,-3912.499 -297.353,-3912.499 -297.353,-3908.394 -289.28,-3908.456 -289.28,-3888.249 -297.353,-3888.249 
			-297.353,-3884.207 -277.172,-3884.207 		"/>
	</defs>
	<clipPath id="SVGID_38_">
		<use xlink:href="#SVGID_37_"  overflow="visible"/>
	</clipPath>
	<g clip-path="url(#SVGID_38_)">
		<defs>
			<rect id="SVGID_39_" x="-585.201" y="-4012.748" width="1808" height="8524"/>
		</defs>
		<clipPath id="SVGID_40_">
			<use xlink:href="#SVGID_39_"  overflow="visible"/>
		</clipPath>
		<rect x="-302.353" y="-3917.499" clip-path="url(#SVGID_40_)" fill="#FF6272" width="30.181" height="38.292"/>
	</g>
</g>
<g>
	<defs>
		<path id="SVGID_41_" d="M-261.019-3880.166h-0.008v-44.457h-44.398v-4.042h-4.036v4.042h-4.036v52.54h52.47v-4.041h0.008
			V-3880.166z M-309.461-3876.124h44.398v-44.457h-44.398V-3876.124z"/>
	</defs>
	<clipPath id="SVGID_42_">
		<use xlink:href="#SVGID_41_"  overflow="visible"/>
	</clipPath>
	<g clip-path="url(#SVGID_42_)">
		<defs>
			<rect id="SVGID_43_" x="-585.201" y="-4012.748" width="1808" height="8524"/>
		</defs>
		<clipPath id="SVGID_44_">
			<use xlink:href="#SVGID_43_"  overflow="visible"/>
		</clipPath>
		<rect x="-318.497" y="-3933.665" clip-path="url(#SVGID_44_)" fill="#FF6272" width="62.478" height="66.582"/>
	</g>
</g>
<g>
	<defs>
		<rect id="SVGID_45_" x="-269.013" y="-3848.816" width="4.036" height="4.042"/>
	</defs>
	<clipPath id="SVGID_46_">
		<use xlink:href="#SVGID_45_"  overflow="visible"/>
	</clipPath>
	<g clip-path="url(#SVGID_46_)">
		<defs>
			<rect id="SVGID_47_" x="-585.201" y="-4012.748" width="1808" height="8524"/>
		</defs>
		<clipPath id="SVGID_48_">
			<use xlink:href="#SVGID_47_"  overflow="visible"/>
		</clipPath>
		<rect x="-274.013" y="-3853.816" clip-path="url(#SVGID_48_)" fill="#FF6272" width="14.036" height="14.042"/>
	</g>
</g>
<g>
	<defs>
		<polygon id="SVGID_49_" points="-220.579,-3844.774 -216.655,-3844.774 -216.655,-3848.852 -212.506,-3848.852 
			-212.506,-3852.857 -264.976,-3852.857 -264.976,-3848.816 -220.579,-3848.816 		"/>
	</defs>
	<clipPath id="SVGID_50_">
		<use xlink:href="#SVGID_49_"  overflow="visible"/>
	</clipPath>
	<g clip-path="url(#SVGID_50_)">
		<defs>
			<rect id="SVGID_51_" x="-585.201" y="-4012.748" width="1808" height="8524"/>
		</defs>
		<clipPath id="SVGID_52_">
			<use xlink:href="#SVGID_51_"  overflow="visible"/>
		</clipPath>
		<rect x="-269.976" y="-3857.857" clip-path="url(#SVGID_52_)" fill="#FF6272" width="62.47" height="18.083"/>
	</g>
</g>
<g>
	<defs>
		<rect id="SVGID_53_" x="-256.904" y="-3828.608" width="12.108" height="4.042"/>
	</defs>
	<clipPath id="SVGID_54_">
		<use xlink:href="#SVGID_53_"  overflow="visible"/>
	</clipPath>
	<g clip-path="url(#SVGID_54_)">
		<defs>
			<rect id="SVGID_55_" x="-585.201" y="-4012.748" width="1808" height="8524"/>
		</defs>
		<clipPath id="SVGID_56_">
			<use xlink:href="#SVGID_55_"  overflow="visible"/>
		</clipPath>
		<rect x="-261.904" y="-3833.608" clip-path="url(#SVGID_56_)" fill="#FF6272" width="22.109" height="14.042"/>
	</g>
</g>
<g>
	<defs>
		<rect id="SVGID_57_" x="-224.614" y="-3844.774" width="4.036" height="4.042"/>
	</defs>
	<clipPath id="SVGID_58_">
		<use xlink:href="#SVGID_57_"  overflow="visible"/>
	</clipPath>
	<g clip-path="url(#SVGID_58_)">
		<defs>
			<rect id="SVGID_59_" x="-585.201" y="-4012.748" width="1808" height="8524"/>
		</defs>
		<clipPath id="SVGID_60_">
			<use xlink:href="#SVGID_59_"  overflow="visible"/>
		</clipPath>
		<rect x="-229.614" y="-3849.774" clip-path="url(#SVGID_60_)" fill="#FF6272" width="14.036" height="14.042"/>
	</g>
</g>
<g>
	<defs>
		<rect id="SVGID_61_" x="-244.796" y="-3808.4" width="4.036" height="4.042"/>
	</defs>
	<clipPath id="SVGID_62_">
		<use xlink:href="#SVGID_61_"  overflow="visible"/>
	</clipPath>
	<g clip-path="url(#SVGID_62_)">
		<defs>
			<rect id="SVGID_63_" x="-585.201" y="-4012.748" width="1808" height="8524"/>
		</defs>
		<clipPath id="SVGID_64_">
			<use xlink:href="#SVGID_63_"  overflow="visible"/>
		</clipPath>
		<rect x="-249.796" y="-3813.4" clip-path="url(#SVGID_64_)" fill="#FF6272" width="14.036" height="14.042"/>
	</g>
</g>
<g>
	<defs>
		<rect id="SVGID_65_" x="-256.904" y="-3804.358" width="12.108" height="4.042"/>
	</defs>
	<clipPath id="SVGID_66_">
		<use xlink:href="#SVGID_65_"  overflow="visible"/>
	</clipPath>
	<g clip-path="url(#SVGID_66_)">
		<defs>
			<rect id="SVGID_67_" x="-585.201" y="-4012.748" width="1808" height="8524"/>
		</defs>
		<clipPath id="SVGID_68_">
			<use xlink:href="#SVGID_67_"  overflow="visible"/>
		</clipPath>
		<rect x="-261.904" y="-3809.358" clip-path="url(#SVGID_68_)" fill="#FF6272" width="22.109" height="14.042"/>
	</g>
</g>
<g>
	<defs>
		<path id="SVGID_69_" d="M-273.048-3792.234h44.398v-44.457h-44.398V-3792.234z M-273.048-3844.774v4.042h-4.036v52.54h52.47v-2.86
			l-0.113-0.008v-12.997l0.113-0.567v-36.108h-44.398v-4.042H-273.048z"/>
	</defs>
	<clipPath id="SVGID_70_">
		<use xlink:href="#SVGID_69_"  overflow="visible"/>
	</clipPath>
	<g clip-path="url(#SVGID_70_)">
		<defs>
			<rect id="SVGID_71_" x="-585.201" y="-4012.748" width="1808" height="8524"/>
		</defs>
		<clipPath id="SVGID_72_">
			<use xlink:href="#SVGID_71_"  overflow="visible"/>
		</clipPath>
		<rect x="-282.085" y="-3849.774" clip-path="url(#SVGID_72_)" fill="#FF6272" width="62.47" height="66.582"/>
	</g>
</g>
<g>
	<defs>
		<rect id="SVGID_73_" x="-260.94" y="-3824.566" width="4.036" height="20.208"/>
	</defs>
	<clipPath id="SVGID_74_">
		<use xlink:href="#SVGID_73_"  overflow="visible"/>
	</clipPath>
	<g clip-path="url(#SVGID_74_)">
		<defs>
			<rect id="SVGID_75_" x="-585.201" y="-4012.748" width="1808" height="8524"/>
		</defs>
		<clipPath id="SVGID_76_">
			<use xlink:href="#SVGID_75_"  overflow="visible"/>
		</clipPath>
		<rect x="-265.94" y="-3829.566" clip-path="url(#SVGID_76_)" fill="#FF6272" width="14.036" height="30.208"/>
	</g>
</g>
<g>
	<defs>
		<rect id="SVGID_77_" x="-244.796" y="-3824.566" width="4.036" height="4.041"/>
	</defs>
	<clipPath id="SVGID_78_">
		<use xlink:href="#SVGID_77_"  overflow="visible"/>
	</clipPath>
	<g clip-path="url(#SVGID_78_)">
		<defs>
			<rect id="SVGID_79_" x="-585.201" y="-4012.748" width="1808" height="8524"/>
		</defs>
		<clipPath id="SVGID_80_">
			<use xlink:href="#SVGID_79_"  overflow="visible"/>
		</clipPath>
		<rect x="-249.796" y="-3829.566" clip-path="url(#SVGID_80_)" fill="#FF6272" width="14.036" height="14.041"/>
	</g>
</g>
<g>
	<defs>
		<polygon id="SVGID_81_" points="-269.092,-3868.085 -265.055,-3868.085 -265.055,-3844.559 -264.977,-3844.774 
			-264.977,-3848.816 -261.019,-3848.816 -261.019,-3876.168 -313.49,-3876.168 -313.49,-3872.127 -269.092,-3872.127 		"/>
	</defs>
	<clipPath id="SVGID_82_">
		<use xlink:href="#SVGID_81_"  overflow="visible"/>
	</clipPath>
	<g clip-path="url(#SVGID_82_)">
		<defs>
			<rect id="SVGID_83_" x="-585.201" y="-4012.748" width="1808" height="8524"/>
		</defs>
		<clipPath id="SVGID_84_">
			<use xlink:href="#SVGID_83_"  overflow="visible"/>
		</clipPath>
		<rect x="-318.49" y="-3881.169" clip-path="url(#SVGID_84_)" fill="#FF6272" width="62.471" height="41.61"/>
	</g>
</g>
<g>
	<defs>
		<rect id="SVGID_85_" x="-273.128" y="-3868.085" width="4.036" height="4.042"/>
	</defs>
	<clipPath id="SVGID_86_">
		<use xlink:href="#SVGID_85_"  overflow="visible"/>
	</clipPath>
	<g clip-path="url(#SVGID_86_)">
		<defs>
			<rect id="SVGID_87_" x="-585.201" y="-4012.748" width="1808" height="8524"/>
		</defs>
		<clipPath id="SVGID_88_">
			<use xlink:href="#SVGID_87_"  overflow="visible"/>
		</clipPath>
		<rect x="-278.128" y="-3873.085" clip-path="url(#SVGID_88_)" fill="#FF6272" width="14.036" height="14.042"/>
	</g>
</g>
<g>
	<defs>
		<rect id="SVGID_89_" x="-317.526" y="-3872.127" width="4.036" height="4.042"/>
	</defs>
	<clipPath id="SVGID_90_">
		<use xlink:href="#SVGID_89_"  overflow="visible"/>
	</clipPath>
	<g clip-path="url(#SVGID_90_)">
		<defs>
			<rect id="SVGID_91_" x="-585.201" y="-4012.748" width="1808" height="8524"/>
		</defs>
		<clipPath id="SVGID_92_">
			<use xlink:href="#SVGID_91_"  overflow="visible"/>
		</clipPath>
		<rect x="-322.526" y="-3877.127" clip-path="url(#SVGID_92_)" fill="#FF6272" width="14.036" height="14.042"/>
	</g>
</g>
<g>
	<defs>
		<path id="SVGID_93_" d="M-273.128-3819.586v-2.959v-41.498h-44.398v-4.042h-4.036v4.042h-4.036v52.541h52.47v-4.042V-3819.586z
			 M-321.562-3815.544h44.398v-44.458h-44.398V-3815.544z"/>
	</defs>
	<clipPath id="SVGID_94_">
		<use xlink:href="#SVGID_93_"  overflow="visible"/>
	</clipPath>
	<g clip-path="url(#SVGID_94_)">
		<defs>
			<rect id="SVGID_95_" x="-585.201" y="-4012.748" width="1808" height="8524"/>
		</defs>
		<clipPath id="SVGID_96_">
			<use xlink:href="#SVGID_95_"  overflow="visible"/>
		</clipPath>
		<rect x="-330.598" y="-3873.085" clip-path="url(#SVGID_96_)" fill="#FF6272" width="62.47" height="66.582"/>
	</g>
</g>
<g>
	<defs>
		<polygon id="SVGID_97_" points="-305.417,-3835.753 -293.308,-3835.753 -293.308,-3823.627 -289.272,-3823.627 
			-289.272,-3847.877 -293.308,-3847.877 -293.308,-3839.794 -305.417,-3839.794 -305.417,-3847.877 -293.308,-3847.877 
			-293.308,-3851.919 -305.417,-3851.919 -305.417,-3847.877 -309.454,-3847.877 -309.454,-3823.627 -305.417,-3823.627 		"/>
	</defs>
	<clipPath id="SVGID_98_">
		<use xlink:href="#SVGID_97_"  overflow="visible"/>
	</clipPath>
	<g clip-path="url(#SVGID_98_)">
		<defs>
			<rect id="SVGID_99_" x="-585.201" y="-4012.748" width="1808" height="8524"/>
		</defs>
		<clipPath id="SVGID_100_">
			<use xlink:href="#SVGID_99_"  overflow="visible"/>
		</clipPath>
		<rect x="-314.454" y="-3856.919" clip-path="url(#SVGID_100_)" fill="#FF6272" width="30.181" height="38.292"/>
	</g>
</g>
<g>
	<defs>
		<polygon id="SVGID_101_" points="54.483,18.54 36.322,18.54 36.322,36.685 36.322,54.831 54.483,54.831 54.483,36.685 		"/>
	</defs>
	<clipPath id="SVGID_102_">
		<use xlink:href="#SVGID_101_"  overflow="visible"/>
	</clipPath>
	<g clip-path="url(#SVGID_102_)">
		<defs>
			<rect id="SVGID_103_" x="-389" y="-3403.606" width="1808" height="8524"/>
		</defs>
		<clipPath id="SVGID_104_">
			<use xlink:href="#SVGID_103_"  overflow="visible"/>
		</clipPath>
		<rect x="31.322" y="13.54" clip-path="url(#SVGID_104_)" fill="#506E86" width="28.161" height="46.291"/>
	</g>
</g>
<g>
	<defs>
		<rect id="SVGID_105_" x="54.484" y="54.831" width="18.161" height="18.145"/>
	</defs>
	<clipPath id="SVGID_106_">
		<use xlink:href="#SVGID_105_"  overflow="visible"/>
	</clipPath>
	<g clip-path="url(#SVGID_106_)">
		<defs>
			<rect id="SVGID_107_" x="-389" y="-3403.606" width="1808" height="8524"/>
		</defs>
		<clipPath id="SVGID_108_">
			<use xlink:href="#SVGID_107_"  overflow="visible"/>
		</clipPath>
		<rect x="49.484" y="49.831" clip-path="url(#SVGID_108_)" fill="#506E86" width="28.161" height="28.145"/>
	</g>
</g>
<g>
	<defs>
		<rect id="SVGID_109_" x="72.645" y="72.976" width="18.161" height="18.145"/>
	</defs>
	<clipPath id="SVGID_110_">
		<use xlink:href="#SVGID_109_"  overflow="visible"/>
	</clipPath>
	<g clip-path="url(#SVGID_110_)">
		<defs>
			<rect id="SVGID_111_" x="-389" y="-3403.606" width="1808" height="8524"/>
		</defs>
		<clipPath id="SVGID_112_">
			<use xlink:href="#SVGID_111_"  overflow="visible"/>
		</clipPath>
		<rect x="67.645" y="67.976" clip-path="url(#SVGID_112_)" fill="#506E86" width="28.161" height="28.145"/>
	</g>
</g>
<g>
	<defs>
		<polygon id="SVGID_113_" points="163.45,18.54 145.289,18.54 145.289,36.685 145.289,54.831 163.45,54.831 163.45,36.685 		"/>
	</defs>
	<clipPath id="SVGID_114_">
		<use xlink:href="#SVGID_113_"  overflow="visible"/>
	</clipPath>
	<g clip-path="url(#SVGID_114_)">
		<defs>
			<rect id="SVGID_115_" x="-389" y="-3403.606" width="1808" height="8524"/>
		</defs>
		<clipPath id="SVGID_116_">
			<use xlink:href="#SVGID_115_"  overflow="visible"/>
		</clipPath>
		<rect x="140.289" y="13.54" clip-path="url(#SVGID_116_)" fill="#506E86" width="28.161" height="46.291"/>
	</g>
</g>
<g>
	<defs>
		<rect id="SVGID_117_" x="127.128" y="54.831" width="18.161" height="18.145"/>
	</defs>
	<clipPath id="SVGID_118_">
		<use xlink:href="#SVGID_117_"  overflow="visible"/>
	</clipPath>
	<g clip-path="url(#SVGID_118_)">
		<defs>
			<rect id="SVGID_119_" x="-389" y="-3403.606" width="1808" height="8524"/>
		</defs>
		<clipPath id="SVGID_120_">
			<use xlink:href="#SVGID_119_"  overflow="visible"/>
		</clipPath>
		<rect x="122.128" y="49.831" clip-path="url(#SVGID_120_)" fill="#506E86" width="28.161" height="28.145"/>
	</g>
</g>
<g>
	<defs>
		<rect id="SVGID_121_" x="108.967" y="72.976" width="18.161" height="18.145"/>
	</defs>
	<clipPath id="SVGID_122_">
		<use xlink:href="#SVGID_121_"  overflow="visible"/>
	</clipPath>
	<g clip-path="url(#SVGID_122_)">
		<defs>
			<rect id="SVGID_123_" x="-389" y="-3403.606" width="1808" height="8524"/>
		</defs>
		<clipPath id="SVGID_124_">
			<use xlink:href="#SVGID_123_"  overflow="visible"/>
		</clipPath>
		<rect x="103.967" y="67.976" clip-path="url(#SVGID_124_)" fill="#506E86" width="28.161" height="28.145"/>
	</g>
</g>
<g>
	<defs>
		<polygon id="SVGID_125_" points="90.806,91.122 90.806,109.267 72.645,109.267 72.645,127.413 54.484,127.413 54.484,145.559 
			145.289,145.559 145.289,127.413 127.128,127.413 127.128,109.267 108.967,109.267 108.967,91.122 		"/>
	</defs>
	<clipPath id="SVGID_126_">
		<use xlink:href="#SVGID_125_"  overflow="visible"/>
	</clipPath>
	<g clip-path="url(#SVGID_126_)">
		<defs>
			<rect id="SVGID_127_" x="-389" y="-3403.606" width="1808" height="8524"/>
		</defs>
		<clipPath id="SVGID_128_">
			<use xlink:href="#SVGID_127_"  overflow="visible"/>
		</clipPath>
		<rect x="49.484" y="86.122" clip-path="url(#SVGID_128_)" fill="#506E86" width="100.805" height="64.437"/>
	</g>
</g>
<g>
	<defs>
		<rect id="SVGID_129_" x="163.45" y="54.831" width="18.161" height="18.145"/>
	</defs>
	<clipPath id="SVGID_130_">
		<use xlink:href="#SVGID_129_"  overflow="visible"/>
	</clipPath>
	<g clip-path="url(#SVGID_130_)">
		<defs>
			<rect id="SVGID_131_" x="-389" y="-3403.606" width="1808" height="8524"/>
		</defs>
		<clipPath id="SVGID_132_">
			<use xlink:href="#SVGID_131_"  overflow="visible"/>
		</clipPath>
		<rect x="158.45" y="49.831" clip-path="url(#SVGID_132_)" fill="#506E86" width="28.161" height="28.145"/>
	</g>
</g>
<g>
	<defs>
		<polygon id="SVGID_133_" points="181.611,18.54 181.611,36.685 181.611,54.831 199.772,54.831 199.772,18.54 		"/>
	</defs>
	<clipPath id="SVGID_134_">
		<use xlink:href="#SVGID_133_"  overflow="visible"/>
	</clipPath>
	<g clip-path="url(#SVGID_134_)">
		<defs>
			<rect id="SVGID_135_" x="-389" y="-3403.606" width="1808" height="8524"/>
		</defs>
		<clipPath id="SVGID_136_">
			<use xlink:href="#SVGID_135_"  overflow="visible"/>
		</clipPath>
		<rect x="176.611" y="13.54" clip-path="url(#SVGID_136_)" fill="#506E86" width="28.161" height="46.291"/>
	</g>
</g>
<g>
	<defs>
		<rect id="SVGID_137_" x="163.45" y="0.394" width="18.161" height="18.145"/>
	</defs>
	<clipPath id="SVGID_138_">
		<use xlink:href="#SVGID_137_"  overflow="visible"/>
	</clipPath>
	<g clip-path="url(#SVGID_138_)">
		<defs>
			<rect id="SVGID_139_" x="-389" y="-3403.606" width="1808" height="8524"/>
		</defs>
		<clipPath id="SVGID_140_">
			<use xlink:href="#SVGID_139_"  overflow="visible"/>
		</clipPath>
		<rect x="158.45" y="-4.606" clip-path="url(#SVGID_140_)" fill="#506E86" width="28.161" height="28.145"/>
	</g>
</g>
<g>
	<defs>
		<rect id="SVGID_141_" x="18.161" y="0.394" width="18.161" height="18.145"/>
	</defs>
	<clipPath id="SVGID_142_">
		<use xlink:href="#SVGID_141_"  overflow="visible"/>
	</clipPath>
	<g clip-path="url(#SVGID_142_)">
		<defs>
			<rect id="SVGID_143_" x="-389" y="-3403.606" width="1808" height="8524"/>
		</defs>
		<clipPath id="SVGID_144_">
			<use xlink:href="#SVGID_143_"  overflow="visible"/>
		</clipPath>
		<rect x="13.161" y="-4.606" clip-path="url(#SVGID_144_)" fill="#506E86" width="28.161" height="28.145"/>
	</g>
</g>
<g>
	<defs>
		<polygon id="SVGID_145_" points="0,18.54 0,36.685 0,54.831 18.161,54.831 18.161,36.685 18.161,18.54 		"/>
	</defs>
	<clipPath id="SVGID_146_">
		<use xlink:href="#SVGID_145_"  overflow="visible"/>
	</clipPath>
	<g clip-path="url(#SVGID_146_)">
		<defs>
			<rect id="SVGID_147_" x="-389" y="-3403.606" width="1808" height="8524"/>
		</defs>
		<clipPath id="SVGID_148_">
			<use xlink:href="#SVGID_147_"  overflow="visible"/>
		</clipPath>
		<rect x="-5" y="13.54" clip-path="url(#SVGID_148_)" fill="#506E86" width="28.161" height="46.291"/>
	</g>
</g>
<g>
	<defs>
		<rect id="SVGID_149_" x="18.161" y="54.831" width="18.161" height="18.145"/>
	</defs>
	<clipPath id="SVGID_150_">
		<use xlink:href="#SVGID_149_"  overflow="visible"/>
	</clipPath>
	<g clip-path="url(#SVGID_150_)">
		<defs>
			<rect id="SVGID_151_" x="-389" y="-3403.606" width="1808" height="8524"/>
		</defs>
		<clipPath id="SVGID_152_">
			<use xlink:href="#SVGID_151_"  overflow="visible"/>
		</clipPath>
		<rect x="13.161" y="49.831" clip-path="url(#SVGID_152_)" fill="#506E86" width="28.161" height="28.145"/>
	</g>
</g>
<g>
	<defs>
		<polygon id="SVGID_153_" points="54.483,0.394 54.483,18.54 72.644,18.54 90.805,18.54 108.967,18.54 127.128,18.54 
			145.289,18.54 145.289,0.394 		"/>
	</defs>
	<clipPath id="SVGID_154_">
		<use xlink:href="#SVGID_153_"  overflow="visible"/>
	</clipPath>
	<g clip-path="url(#SVGID_154_)">
		<defs>
			<rect id="SVGID_155_" x="-389" y="-3403.606" width="1808" height="8524"/>
		</defs>
		<clipPath id="SVGID_156_">
			<use xlink:href="#SVGID_155_"  overflow="visible"/>
		</clipPath>
		<rect x="49.483" y="-4.606" clip-path="url(#SVGID_156_)" fill="#506E86" width="100.805" height="28.145"/>
	</g>
</g>
</svg>
