<?xml version="1.0" encoding="UTF-8"?>
<svg width="146px" height="107px" viewBox="0 0 146 107" version="1.1" xmlns="http://www.w3.org/2000/svg" xmlns:xlink="http://www.w3.org/1999/xlink">
    <!-- Generator: Sketch 45 (43475) - http://www.bohemiancoding.com/sketch -->
    <title>Page 1</title>
    <desc>Created with Sketch.</desc>
    <defs></defs>
    <g id="Page-1" stroke="none" stroke-width="1" fill="none" fill-rule="evenodd">
        <g id="Livehacks-Website-FAQ-Dropdown" transform="translate(-604.000000, -15242.000000)" fill="#506E86">
            <path d="M604,15349 L749.998,15349 L749.998,15242 L604,15242 L604,15349 Z M630.903,15253.822 L723.435,15253.822 L723.435,15265.913 L723.433,15265.913 L709.969,15265.913 L709.969,15279.435 L696.447,15279.435 L696.447,15292.96 L682.922,15292.96 L682.922,15306.478 L671.414,15306.478 L671.414,15292.96 L657.887,15292.96 L657.887,15279.435 L644.369,15279.435 L644.369,15265.913 L630.903,15265.913 L630.903,15253.822 Z M684.703,15321.783 L684.703,15308.259 L698.222,15308.259 L698.222,15294.737 L711.748,15294.737 L711.748,15281.218 L725.267,15281.218 L725.267,15267.753 L735.854,15267.753 L735.854,15333.468 L618.135,15333.468 L618.135,15267.753 L629.065,15267.753 L629.065,15281.218 L642.586,15281.218 L642.586,15294.736 L656.11,15294.736 L656.11,15308.259 L669.4,15308.259 L669.4,15321.783 L684.703,15321.783 Z" id="Page-1"></path>
        </g>
    </g>
</svg>