<?xml version="1.0" encoding="UTF-8"?>
<svg width="35px" height="31px" viewBox="0 0 35 31" version="1.1" xmlns="http://www.w3.org/2000/svg" xmlns:xlink="http://www.w3.org/1999/xlink">
    <!-- Generator: Sketch 43 (38999) - http://www.bohemiancoding.com/sketch -->
    <title>Path</title>
    <desc>Created with Sketch.</desc>
    <defs></defs>
    <g id="Page-1" stroke="none" stroke-width="1" fill="none" fill-rule="evenodd">
        <g id="Live-Hacks-Desktop" transform="translate(-1333.000000, -56.000000)" fill="#FF6272">
            <path d="M1364.14019,63.7009346 L1364.14019,59.8785047 L1360.30841,59.8785047 L1360.30841,56.0093458 L1356.40187,56.0093458 L1356.40187,59.8785047 L1356.40187,59.8971963 L1352.51402,59.8971963 L1352.51402,63.7476636 L1352.38318,63.7476636 L1348.49533,63.7476636 L1348.49533,59.8971963 L1344.61682,59.8971963 L1344.61682,59.8785047 L1344.61682,56.0093458 L1340.70093,56.0093458 L1340.70093,59.8785047 L1336.85981,59.8785047 L1336.85981,63.7009346 L1333,63.7009346 L1333,67.5327103 L1333,67.6168224 L1333,71.4672897 L1336.8972,71.4672897 L1336.8972,75.364486 L1340.70093,75.364486 L1340.7757,75.364486 L1340.7757,79.2336449 L1344.66355,79.2336449 L1344.66355,83.1121495 L1348.5514,83.1121495 L1348.5514,87 L1352.45794,87 L1352.45794,83.1121495 L1356.34579,83.1121495 L1356.34579,79.2336449 L1360.20561,79.2336449 L1360.20561,75.364486 L1360.30841,75.364486 L1364.1215,75.364486 L1364.1215,71.4672897 L1368,71.4672897 L1368,67.6168224 L1368,67.5327103 L1368,63.7009346 L1364.14019,63.7009346" id="Path"></path>
        </g>
    </g>
</svg>