<?xml version="1.0" encoding="UTF-8"?>
<svg width="37px" height="37px" viewBox="0 0 37 37" version="1.1" xmlns="http://www.w3.org/2000/svg" xmlns:xlink="http://www.w3.org/1999/xlink">
    <!-- Generator: Sketch 45.1 (43504) - http://www.bohemiancoding.com/sketch -->
    <title>Livehacks-video-open</title>
    <desc>Created with Sketch.</desc>
    <defs>
        <polygon id="path-1" points="36.5527715 36.5919596 6.39198575e-05 36.5919596 6.39198575e-05 5.41367434e-05 36.5527715 5.41367434e-05 36.5527715 36.5919596"></polygon>
    </defs>
    <g id="Page-1" stroke="none" stroke-width="1" fill="none" fill-rule="evenodd">
        <g id="Livehacks-Website-FAQ-Dropdown-Copy" transform="translate(-1403.000000, -3408.000000)">
            <g id="Livehacks-video-open" transform="translate(1403.132812, 3408.132812)">
                <mask id="mask-2" fill="white">
                    <use xlink:href="#path-1"></use>
                </mask>
                <g id="Clip-2"></g>
                <path d="M22.1478337,11.9898158 L29.6739,4.46374956 C30.1229717,4.0146779 29.9755047,3.6493459 29.3379478,3.65417158 L21.5214895,3.71463445 C19.1895529,3.73265977 19.2166618,0.233903315 21.5485984,0.215877999 L34.8372305,0.000283863247 C35.7888821,-0.0151866837 36.56539,0.752663399 36.5526161,1.71566946 L36.3760532,15.0433328 C36.3580279,17.3752693 32.8595553,17.4028041 32.8771548,15.0704417 L32.9380435,7.25426721 C32.9430111,6.60791059 32.5805177,6.46640477 32.1286074,6.91845699 L14.4552817,24.5917827 C14.4450626,24.6018599 14.4348435,24.611937 14.4244825,24.6217303 L6.89841624,32.1477966 C6.44934458,32.5968682 6.59681154,32.9623422 7.23436839,32.9573746 L15.0508268,32.8969117 C17.3827633,32.8788864 17.3556544,36.3776428 15.0237178,36.3956681 L1.71564108,36.5918176 C0.762428295,36.6058689 -0.0139376854,35.8378769 0.000255476922,34.876432 L0.196263049,21.5682134 C0.214288365,19.2362768 3.71276095,19.208884 3.69516143,21.5412464 L3.63427276,29.3572789 C3.62930516,30.0036355 3.99179852,30.1451414 4.44370881,29.6932311 L22.1170346,12.0199053 C22.1272536,12.0096863 22.1374727,11.999751 22.1478337,11.9898158" id="Fill-1" fill="#FFFFFF" mask="url(#mask-2)"></path>
            </g>
        </g>
    </g>
</svg>