<?xml version="1.0" encoding="UTF-8"?>
<svg width="142px" height="142px" viewBox="0 0 142 142" version="1.1" xmlns="http://www.w3.org/2000/svg" xmlns:xlink="http://www.w3.org/1999/xlink">
    <!-- Generator: Sketch 45 (43475) - http://www.bohemiancoding.com/sketch -->
    <title>Page 1</title>
    <desc>Created with Sketch.</desc>
    <defs></defs>
    <g id="Page-1" stroke="none" stroke-width="1" fill="none" fill-rule="evenodd">
        <g id="Livehacks-Website-FAQ-Dropdown" transform="translate(-1290.000000, -7874.000000)" fill="#506E86">
            <path d="M1326.05773,7874.80658 L1326.05773,7886.55665 L1337.80781,7886.55665 L1349.55788,7886.55665 L1361.30796,7886.55665 L1373.05804,7886.55665 L1384.80812,7886.55665 L1396.55727,7886.55665 L1396.55727,7874.80658 L1326.05773,7874.80658 Z M1396.55727,7898.30765 L1408.30827,7898.30765 L1408.30827,7886.55665 L1396.55727,7886.55665 L1396.55727,7898.30765 Z M1314.30765,7886.55665 L1314.30765,7898.30765 L1302.55758,7898.30765 L1302.55758,7910.05773 L1290.8075,7910.05773 L1290.8075,7921.80688 L1290.8075,7933.55696 L1290.8075,7945.30704 L1290.8075,7957.05712 L1290.8075,7968.80719 L1290.8075,7980.55727 L1302.55758,7980.55727 L1302.55758,7968.80719 L1302.55758,7957.05712 L1302.55758,7945.30704 L1302.55758,7933.55696 L1302.55758,7921.80688 L1302.55758,7910.05773 L1314.30765,7910.05773 L1314.30765,7898.30765 L1326.05773,7898.30765 L1326.05773,7886.55665 L1314.30765,7886.55665 Z M1408.30827,7910.05773 L1420.05835,7910.05773 L1420.05835,7898.30765 L1408.30827,7898.30765 L1408.30827,7910.05773 Z M1373.05804,7898.30765 L1361.30796,7898.30765 L1361.30796,7910.05773 L1361.30796,7921.80688 L1361.30796,7933.55696 L1361.30796,7945.30704 L1373.05804,7945.30704 L1384.80812,7945.30704 L1396.55727,7945.30704 L1408.30827,7945.30704 L1408.30827,7933.55696 L1408.30827,7921.80688 L1396.55727,7921.80688 L1396.55727,7910.05773 L1384.80812,7910.05773 L1384.80812,7898.30765 L1373.05804,7898.30765 Z M1337.80781,7898.30765 L1337.80781,7910.05773 L1326.05773,7910.05773 L1326.05773,7921.80688 L1314.30765,7921.80688 L1314.30765,7933.55696 L1314.30765,7945.30704 L1314.30765,7957.05712 L1314.30765,7968.80719 L1326.05773,7968.80719 L1326.05773,7980.55727 L1337.80781,7980.55727 L1337.80781,7992.30735 L1349.55788,7992.30735 L1361.30796,7992.30735 L1373.05804,7992.30735 L1384.80812,7992.30735 L1384.80812,7980.55727 L1396.55727,7980.55727 L1396.55727,7968.80719 L1408.30827,7968.80719 L1408.30827,7957.05712 L1396.55727,7957.05712 L1384.80812,7957.05712 L1373.05804,7957.05712 L1361.30796,7957.05712 L1349.55788,7957.05712 L1349.55788,7945.30704 L1349.55788,7933.55696 L1349.55788,7921.80688 L1349.55788,7910.05773 L1349.55788,7898.30765 L1337.80781,7898.30765 Z M1420.05835,7910.05773 L1420.05835,7921.80688 L1420.05835,7933.55696 L1420.05835,7945.30704 L1420.05835,7957.05712 L1420.05835,7968.80719 L1420.05835,7980.55727 L1431.80842,7980.55727 L1431.80842,7910.05773 L1420.05835,7910.05773 Z M1408.30827,7992.30735 L1420.05835,7992.30735 L1420.05835,7980.55727 L1408.30827,7980.55727 L1408.30827,7992.30735 Z M1302.55758,7992.30735 L1314.30765,7992.30735 L1314.30765,7980.55727 L1302.55758,7980.55727 L1302.55758,7992.30735 Z M1396.55727,8004.05742 L1408.30827,8004.05742 L1408.30827,7992.30735 L1396.55727,7992.30735 L1396.55727,8004.05742 Z M1314.30765,8004.05742 L1326.05773,8004.05742 L1326.05773,7992.30735 L1314.30765,7992.30735 L1314.30765,8004.05742 Z M1384.80812,8004.05742 L1373.05804,8004.05742 L1361.30796,8004.05742 L1349.55788,8004.05742 L1337.80781,8004.05742 L1326.05773,8004.05742 L1326.05773,8015.8075 L1337.80781,8015.8075 L1349.55788,8015.8075 L1361.30796,8015.8075 L1373.05804,8015.8075 L1384.80812,8015.8075 L1396.55727,8015.8075 L1396.55727,8004.05742 L1384.80812,8004.05742 Z" id="Page-1"></path>
        </g>
    </g>
</svg>