<?xml version="1.0" encoding="UTF-8"?>
<svg width="134px" height="151px" viewBox="0 0 134 151" version="1.1" xmlns="http://www.w3.org/2000/svg" xmlns:xlink="http://www.w3.org/1999/xlink">
    <!-- Generator: Sketch 45 (43475) - http://www.bohemiancoding.com/sketch -->
    <title>Page 1</title>
    <desc>Created with Sketch.</desc>
    <defs></defs>
    <g id="Page-1" stroke="none" stroke-width="1" fill="none" fill-rule="evenodd">
        <g id="Livehacks-Website-FAQ-Dropdown" transform="translate(-691.000000, -2048.000000)" fill="#506E86">
            <g id="Page-1" transform="translate(691.000000, 2048.000000)">
                <polygon id="Fill-1" points="50.1183 33.4125 50.1183 50.1185 33.4113 50.1185 33.4113 33.4125 16.7053 33.4125 16.7053 50.1185 0.0003 50.1185 0.0003 133.6485 16.7053 133.6485 16.7053 66.8245 83.5303 66.8245 83.5303 133.6485 116.9413 133.6485 116.9413 116.9425 100.2353 116.9425 100.2353 100.2355 100.2353 83.5295 116.9413 83.5295 116.9413 66.8245 100.2353 66.8245 100.2353 50.1185 66.8243 50.1185 66.8243 33.4125"></polygon>
                <polygon id="Fill-2" points="50.1183 133.6482 16.7053 133.6482 16.7053 150.3542 83.5303 150.3542 83.5303 133.6482"></polygon>
                <polygon id="Fill-3" points="116.941 116.942 133.648 116.942 133.648 83.529 116.941 83.529"></polygon>
                <polygon id="Fill-4" points="66.824 33.412 83.53 33.412 83.53 16.706 66.824 16.706"></polygon>
                <polygon id="Fill-5" points="50.118 16.706 66.824 16.706 66.824 2.84217094e-14 50.118 2.84217094e-14"></polygon>
                <polygon id="Fill-6" points="33.412 33.412 50.118 33.412 50.118 16.706 33.412 16.706"></polygon>
                <polygon id="Fill-7" points="16.706 16.706 33.412 16.706 33.412 2.84217094e-14 16.706 2.84217094e-14"></polygon>
            </g>
        </g>
    </g>
</svg>